<?xml version="1.0" encoding="UTF-8"?>
<svg version="1.1" xmlns="http://www.w3.org/2000/svg" width="512" height="512">
<path d="M0 0 C0.86117432 -0.011521 1.72234863 -0.02304199 2.60961914 -0.03491211 C3.98621704 -0.01956421 3.98621704 -0.01956421 5.390625 -0.00390625 C6.33349365 0.00439209 7.2763623 0.01269043 8.24780273 0.02124023 C28.65562676 0.50850326 42.50746634 9.97700285 57.56762695 22.78369141 C58.25171631 23.32815918 58.93580566 23.87262695 59.640625 24.43359375 C60.12434067 24.85339508 60.60805634 25.27319641 61.10643005 25.70571899 C65.92309149 29.59230525 69.85273911 30.26922457 75.94921875 30.37890625 C77.27579247 30.41454178 77.27579247 30.41454178 78.62916565 30.45089722 C80.4972574 30.48920999 82.36568035 30.51361846 84.23413086 30.52490234 C87.04432815 30.55819338 89.83948483 30.68734026 92.64648438 30.8203125 C104.00869409 31.08927329 110.92111042 29.28859716 119.3735199 21.48440552 C120.54490094 20.35588516 121.70994152 19.22074166 122.86813354 18.07868958 C135.95435425 5.93302479 151.68166664 0.303016 169.328125 0.12109375 C170.27751953 0.09208984 171.22691406 0.06308594 172.20507812 0.03320312 C173.11580078 0.02482422 174.02652344 0.01644531 174.96484375 0.0078125 C175.79072998 -0.00677002 176.61661621 -0.02135254 177.4675293 -0.03637695 C179.640625 0.43359375 179.640625 0.43359375 181.40551758 2.24145508 C183.22494693 5.47068143 183.09532864 7.79596466 182.640625 11.43359375 C180.96803453 13.95618921 179.61332563 15.22262121 176.61450195 15.87304688 C174.10244393 16.13788562 171.60046013 16.2989858 169.078125 16.43359375 C151.57912147 17.80591121 139.96631857 25.30476073 126.640625 36.43359375 C127.6859249 39.56949345 128.87315547 40.6313045 131.17578125 42.8671875 C139.62258205 51.89963315 142.30119212 61.86409872 141.984375 74.03515625 C140.98506283 83.9147197 136.03542437 90.83184033 128.62109375 97.15625 C124.84008829 100.09863857 121.02638247 102.46000289 116.640625 104.43359375 C117.28 105.07296875 117.919375 105.71234375 118.578125 106.37109375 C119.03316406 106.83 119.48820312 107.28890625 119.95703125 107.76171875 C121.1997841 108.99582134 122.46039976 110.2119967 123.73046875 111.41796875 C129.72510552 117.19741344 135.49035329 123.44467953 138.82421875 131.1796875 C140.56984763 133.84588012 140.56984763 133.84588012 144.43359375 134.140625 C145.89764579 134.20024703 147.3629047 134.23457673 148.828125 134.24609375 C149.57771484 134.27123047 150.32730469 134.29636719 151.09960938 134.32226562 C152.94605121 134.38106951 154.79339502 134.41021109 156.640625 134.43359375 C156.80425537 133.8197583 156.96788574 133.20592285 157.13647461 132.57348633 C158.88295311 126.36029269 161.16007329 120.8046237 164.203125 115.12109375 C164.63858643 114.3022168 165.07404785 113.48333984 165.52270508 112.63964844 C169.54376364 105.27456468 174.16225903 98.79074197 179.640625 92.43359375 C180.21039063 91.76328125 180.78015625 91.09296875 181.3671875 90.40234375 C192.59184768 78.2376874 208.6032814 70.7546507 224.140625 65.93359375 C224.98955322 65.66587158 225.83848145 65.39814941 226.71313477 65.12231445 C231.34822926 63.76506158 234.87512905 62.98132163 239.640625 64.43359375 C241.89788511 66.32481168 243.32708924 67.80652224 244.640625 70.43359375 C244.89288438 74.30157084 245.03509066 77.27725265 242.640625 80.43359375 C237.96771368 83.07418223 233.17039028 84.60932535 228.078125 86.18359375 C206.45666678 93.1723035 192.15031401 105.43916094 181.45532227 125.49194336 C178.648853 131.02514062 176.5905949 136.77460768 174.8059082 142.71166992 C173.2973537 147.48258047 171.81313985 150.58420532 167.640625 153.43359375 C164.17581582 154.01471563 160.82835528 153.90688171 157.328125 153.74609375 C155.93110352 153.71225586 155.93110352 153.71225586 154.50585938 153.67773438 C152.2157854 153.61901453 149.92904625 153.53696233 147.640625 153.43359375 C147.805625 153.94921875 147.970625 154.46484375 148.140625 154.99609375 C148.79034208 158.16346451 148.67073541 161.20801654 148.640625 164.43359375 C149.44162628 164.4247113 150.24262756 164.41582886 151.06790161 164.40667725 C158.63009675 164.32640727 166.19208426 164.26556676 173.7545948 164.22634506 C177.64224603 164.20550255 181.52954415 164.17724694 185.41699219 164.13183594 C189.17120695 164.08825756 192.92508286 164.06443156 196.6795311 164.05408478 C198.10924486 164.04671477 199.53894083 164.03232261 200.96850967 164.01067352 C202.97637981 163.98148615 204.98459357 163.97995855 206.99267578 163.97949219 C208.7047673 163.96616852 208.7047673 163.96616852 210.45144653 163.95257568 C215.15333597 164.66175323 218.17929601 166.8394814 221.36306763 170.31254578 C221.82607269 170.95794815 222.28907776 171.60335052 222.76611328 172.26831055 C239.5705696 195.14354233 239.5705696 195.14354233 264.17480469 207.21826172 C278.53814658 209.15616067 293.49804586 208.25244231 307.87155151 206.88572693 C308.95421295 206.78760208 310.03687439 206.68947723 311.15234375 206.58837891 C312.09553467 206.48788239 313.03872559 206.38738586 314.01049805 206.28384399 C317.28954358 206.47054079 319.00028308 207.53226448 321.640625 209.43359375 C324.18507417 212.55632683 323.72301855 215.62419137 323.41796875 219.43359375 C322.22441859 222.50443638 320.358033 223.6278779 317.640625 225.43359375 C314.47367859 225.9617157 314.47367859 225.9617157 310.8659668 225.9987793 C310.20509064 226.01060745 309.54421448 226.02243561 308.86331177 226.03462219 C306.6884804 226.06739568 304.51490544 226.07046635 302.33984375 226.0703125 C300.81915279 226.08063561 299.2984667 226.09169972 297.77778625 226.10346985 C294.59269395 226.12288171 291.40804051 226.12633136 288.22290039 226.11987305 C284.15703486 226.11388488 280.0934589 226.15806411 276.02806377 226.21576214 C272.88709436 226.25288494 269.74667009 226.25765499 266.6055088 226.25348854 C265.10766095 226.25634714 263.60978878 226.27031586 262.11215782 226.29596519 C248.98248319 226.49717059 248.98248319 226.49717059 244.07861328 222.38964844 C242.88668841 221.11232624 241.73893848 219.79224911 240.640625 218.43359375 C240.08677628 217.7926326 239.53292755 217.15167145 238.96229553 216.49128723 C237.83873101 215.16243508 236.7343389 213.8171602 235.64863586 212.4571991 C220.09949461 192.41938856 220.09949461 192.41938856 197.85231018 182.43888855 C186.40648813 181.5431084 174.95167951 182.64269029 163.640625 184.43359375 C164.18884415 184.97959229 164.73706329 185.52559082 165.30189514 186.08813477 C170.49706666 191.26317322 175.68975575 196.44068447 180.87975407 201.62091064 C183.54732382 204.28328739 186.21580476 206.94473664 188.88647461 209.60400391 C191.46932089 212.17589288 194.04963423 214.75029924 196.62829399 217.3263855 C197.60687012 218.30313031 198.58631794 219.27900269 199.56669807 220.25393677 C204.60372311 225.26411999 209.54018026 230.29569057 214.13768005 235.71533203 C215.73237857 237.53849223 217.41144055 239.23816051 219.140625 240.93359375 C222.13296875 243.8795959 224.89386672 246.96342382 227.6328125 250.14453125 C229.58398777 252.3690229 231.58186601 254.54474208 233.59448242 256.71362305 C238.35314465 261.84506486 242.88911631 267.08691332 247.27734375 272.54296875 C249.43391776 275.18076175 251.6427953 277.75638698 253.88110352 280.32421875 C260.62019681 288.06714593 266.88538022 296.11349719 273.046875 304.32080078 C274.57522415 306.34689354 276.12045764 308.35872824 277.671875 310.3671875 C285.5930631 320.67720225 292.74452204 331.41501473 299.640625 342.43359375 C300.09179688 343.1512793 300.54296875 343.86896484 301.0078125 344.60839844 C320.27496131 375.50881816 336.72663536 412.57794958 328.6171875 449.640625 C322.92075117 471.76558371 306.84797918 490.70876316 288.0234375 503.23828125 C284.85843487 504.82597109 282.25635261 505.23269574 278.74609375 505.265625 C272.70062038 502.87659749 269.63079734 495.0150625 266.89453125 489.55078125 C266.45066071 488.67957642 266.00679016 487.80837158 265.54946899 486.9107666 C264.09310773 484.04715154 262.64803131 481.17800337 261.203125 478.30859375 C260.18521223 476.3013107 259.16673019 474.29431624 258.14770508 472.28759766 C250.08385181 456.38495747 242.1041049 440.43900705 234.17602539 424.46826172 C230.14476815 416.35810968 226.06380221 408.28449224 221.81640625 400.28515625 C214.94307767 387.33160495 208.47986319 374.17091437 201.95410156 361.04003906 C193.94209583 344.91277205 193.94209583 344.91277205 185.640625 328.93359375 C178.81987454 316.10058098 172.42149172 303.05346164 165.95410156 290.04003906 C160.12967599 278.32688572 154.27960239 266.63828363 148.14663696 255.08317566 C143.96970998 247.20353764 139.98391492 239.23230061 136.015625 231.24609375 C135.29055858 229.79091895 134.56529843 228.33584066 133.83984375 226.88085938 C132.10455817 223.39953472 130.37182 219.91695425 128.640625 216.43359375 C125.17794118 216.43359375 123.05029597 219.53531925 120.640625 221.80859375 C120.0940625 222.31648437 119.5475 222.824375 118.984375 223.34765625 C116.83835016 225.34640487 114.7144066 227.35981215 112.640625 229.43359375 C113.31544922 229.89185547 113.31544922 229.89185547 114.00390625 230.359375 C125.13392754 238.27752642 133.39218796 247.95690176 140.640625 259.43359375 C141.62289062 260.94759766 141.62289062 260.94759766 142.625 262.4921875 C166.71420369 301.85394633 175.77565093 357.19261577 165.00634766 402.07714844 C157.15198964 433.08324116 142.64986325 461.32108009 121.640625 485.43359375 C121.1338623 486.02011719 120.62709961 486.60664063 120.10498047 487.2109375 C114.69529782 493.42564293 109.02713719 499.19735345 102.765625 504.55859375 C102.24226563 505.00823486 101.71890625 505.45787598 101.1796875 505.92114258 C96.95559715 509.42527875 92.84162004 511.95886933 87.453125 513.12109375 C77.72970844 511.36769076 69.61299348 502.02194194 62.640625 495.43359375 C62.02574219 494.85996094 61.41085938 494.28632813 60.77734375 493.6953125 C29.98008365 464.03082518 7.35021105 417.49116625 6.4375 374.4609375 C6.06486598 336.40745748 12.3957434 300.18893419 30.640625 266.43359375 C31.21683594 265.35335938 31.79304687 264.273125 32.38671875 263.16015625 C38.91252834 251.4347986 47.54647274 242.07288796 57.453125 233.12109375 C58.42894531 232.23808594 59.40476563 231.35507813 60.41015625 230.4453125 C61.14621094 229.78144531 61.88226563 229.11757812 62.640625 228.43359375 C61.64482422 227.65435547 61.64482422 227.65435547 60.62890625 226.859375 C59.74589844 226.16199219 58.86289063 225.46460938 57.953125 224.74609375 C57.08300781 224.06160156 56.21289062 223.37710938 55.31640625 222.671875 C52.59448947 220.39500155 50.11285677 217.97709706 47.640625 215.43359375 C40.51562652 228.70324695 33.74518353 242.13987605 27.05883789 255.63427734 C23.44717313 262.90921503 19.76212196 270.13485558 15.953125 277.30859375 C9.4533398 289.5678755 3.31683532 302.00917732 -2.859375 314.43359375 C-15.91483281 340.69669623 -15.91483281 340.69669623 -22.58361816 353.23999023 C-28.38593576 364.19673991 -33.84194287 375.33163855 -39.359375 386.43359375 C-51.85527342 411.5773384 -51.85527342 411.5773384 -57.359375 421.9296875 C-61.24611627 429.24043213 -64.98426343 436.61812079 -68.671875 444.03125 C-69.21755127 445.12811127 -69.76322754 446.22497253 -70.32543945 447.35507202 C-72.56882086 451.86931436 -74.80927865 456.38499149 -77.04589844 460.90258789 C-82.53227243 471.97655167 -88.01801114 483.0418889 -93.984375 493.8671875 C-94.587052 494.96777245 -94.587052 494.96777245 -95.2019043 496.09059143 C-99.53747849 503.83016306 -99.53747849 503.83016306 -103.19921875 505.04296875 C-111.41266615 505.59359092 -116.46489636 500.53326969 -122.359375 495.43359375 C-122.86936035 495.00578613 -123.3793457 494.57797852 -123.90478516 494.13720703 C-140.43549221 480.22241739 -153.12855146 461.84639865 -155.23046875 439.75390625 C-156.62656966 414.62408996 -150.21210515 391.90293721 -139.359375 369.43359375 C-138.99166992 368.65628906 -138.62396484 367.87898438 -138.24511719 367.078125 C-126.28183893 342.02777634 -109.60100191 319.08208567 -92.359375 297.43359375 C-91.78106934 296.7051123 -91.20276367 295.97663086 -90.60693359 295.22607422 C-80.90536078 283.04561199 -70.8277645 271.18386733 -60.36328125 259.65234375 C-58.54625518 257.64050982 -56.75993108 255.60698941 -54.984375 253.55859375 C-50.21246288 248.08941593 -45.28502141 242.76375262 -40.359375 237.43359375 C-39.83869446 236.86901459 -39.31801392 236.30443542 -38.78155518 235.7227478 C-28.11088432 224.17268844 -17.06863447 213.02260928 -5.921875 201.93359375 C-4.20744506 200.22419623 -2.49325108 198.51456202 -0.77929688 196.8046875 C3.35797255 192.67826874 7.49810061 188.55473668 11.640625 184.43359375 C-2.77404443 181.67134872 -21.07662923 178.3641407 -34.3460083 186.19647217 C-48.03565147 196.18062667 -59.24900857 209.71910629 -69.8896637 222.79478455 C-71.359375 224.43359375 -71.359375 224.43359375 -73.359375 225.43359375 C-75.51781942 225.54598542 -77.67976783 225.59295744 -79.84106445 225.6105957 C-80.50632141 225.6171669 -81.17157837 225.6237381 -81.85699463 225.63050842 C-84.06221629 225.65024536 -86.26736982 225.66190513 -88.47265625 225.671875 C-89.6024141 225.67798829 -89.6024141 225.67798829 -90.75499535 225.68422508 C-94.74185284 225.70508805 -98.72867589 225.71938845 -102.71557617 225.72875977 C-106.83159281 225.7398216 -110.94706843 225.77421758 -115.06289387 225.81393147 C-118.22937518 225.84009062 -121.39572749 225.84845096 -124.56230736 225.85204124 C-126.07935424 225.8569095 -127.59639527 225.86853042 -129.11333656 225.88707924 C-131.23915953 225.91145635 -133.3635817 225.9105093 -135.48950195 225.90356445 C-137.30246513 225.91236382 -137.30246513 225.91236382 -139.15205383 225.92134094 C-142.98103765 225.3390556 -144.62967902 224.12728097 -147.359375 221.43359375 C-148.92999869 217.63540281 -148.72127807 214.30978013 -147.171875 210.55859375 C-145.23779473 208.29105136 -144.11532903 207.48654608 -141.359375 206.43359375 C-138.86296082 206.41755676 -138.86296082 206.41755676 -136.01635742 206.73364258 C-102.27966896 210.71675447 -102.27966896 210.71675447 -71.73884583 199.26887512 C-61.19836942 190.12847741 -52.15829397 179.37752755 -43.91723633 168.14796448 C-41.30326237 165.27137954 -39.2818376 164.50883467 -35.41070557 164.19308472 C-34.26487 164.19752594 -33.11903442 164.20196716 -31.93847656 164.20654297 C-29.98690643 164.20676956 -29.98690643 164.20676956 -27.99591064 164.20700073 C-26.58060553 164.21721329 -25.16530199 164.22764527 -23.75 164.23828125 C-22.29840286 164.24201304 -20.8468032 164.24485923 -19.39520264 164.24685669 C-15.58112593 164.25448011 -11.76720238 164.2741174 -7.95318604 164.29626465 C-4.05865551 164.31675097 -0.16410016 164.32586436 3.73046875 164.3359375 C11.3672572 164.3573646 19.00391961 164.39148483 26.640625 164.43359375 C26.62515625 162.77650391 26.62515625 162.77650391 26.609375 161.0859375 C26.63392784 158.216324 26.78025969 156.12223535 27.640625 153.43359375 C27.06094971 153.45977783 26.48127441 153.48596191 25.8840332 153.51293945 C23.24067625 153.61729987 20.59775301 153.68203702 17.953125 153.74609375 C16.58510742 153.80893555 16.58510742 153.80893555 15.18945312 153.87304688 C10.88701465 153.95127303 8.39869568 153.92878508 4.734375 151.53515625 C1.94629086 147.40504653 0.43124831 143.19092502 -1.171875 138.49609375 C-8.40945847 118.59487949 -19.4146962 101.13267799 -39.08203125 91.56640625 C-46.96574493 87.92524048 -55.01843502 85.10602573 -63.34765625 82.671875 C-66.59172875 81.33806049 -67.73469813 80.50052763 -69.359375 77.43359375 C-69.98946508 72.47163435 -70.18423145 70.57383649 -67.234375 66.49609375 C-63.96620116 64.15153425 -62.33902366 63.73972057 -58.359375 63.43359375 C-55.67514312 63.93526544 -53.26173885 64.50717899 -50.671875 65.30859375 C-49.93928467 65.53272949 -49.20669434 65.75686523 -48.4519043 65.98779297 C-22.25109544 74.40681278 -2.24668971 89.85159694 10.68212891 114.41210938 C13.95661926 120.91990153 16.7765876 127.38266966 18.640625 134.43359375 C26.72696435 134.86907816 26.72696435 134.86907816 34.640625 133.43359375 C37.25312351 130.98050193 38.48571992 128.68162582 40.078125 125.484375 C44.21145191 117.41405421 51.71842636 111.12978991 58.640625 105.43359375 C57.71121094 104.87671875 56.78179687 104.31984375 55.82421875 103.74609375 C46.3284769 97.93857911 38.19262332 92.33266046 34.30078125 81.3984375 C31.50375793 68.83665821 33.775088 57.32470044 40.578125 46.49609375 C42.89960053 43.1881388 45.37048455 40.83810879 48.640625 38.43359375 C48.640625 37.77359375 48.640625 37.11359375 48.640625 36.43359375 C46.71827053 34.75831305 44.80049631 33.21179254 42.765625 31.68359375 C42.17354248 31.2362085 41.58145996 30.78882324 40.97143555 30.32788086 C28.73919248 21.20192515 18.45178225 17.26636415 3.24047852 16.34277344 C-0.53812194 16.04966239 -2.76397394 15.85796563 -5.90234375 13.62109375 C-8.32375742 9.98572738 -7.83780707 7.73948236 -7.359375 3.43359375 C-5.20963676 0.48878694 -3.56971143 0.04527621 0 0 Z M59.203125 54.36328125 C54.59419456 60.10139965 52.09979617 64.99233514 52.328125 72.484375 C53.12383774 77.44763324 56.85094728 81.19913148 60.68359375 84.20703125 C70.8887033 90.60304801 83.23847274 94.09141751 95.125 91.74609375 C105.72479856 89.30123186 115.27678832 85.67142119 121.640625 76.43359375 C123.70027934 70.25463073 122.73966256 65.29327812 119.96484375 59.578125 C116.69470871 54.28224259 112.12213838 51.12799501 106.28125 49.04003906 C100.91212867 47.80696793 95.3972856 47.95433912 89.91455078 47.98754883 C87.77668544 47.99604977 85.64150824 47.96724964 83.50390625 47.93554688 C74.49095256 47.8878579 66.51313657 48.57618876 59.203125 54.36328125 Z M63.5546875 126.35546875 C53.15425528 137.09526249 45.95265866 150.71723243 45.265625 165.74609375 C45.65826327 182.35238294 56.2308749 197.39311239 67.140625 209.12109375 C68.378125 210.26578125 68.378125 210.26578125 69.640625 211.43359375 C70.24648437 212.00980469 70.85234375 212.58601563 71.4765625 213.1796875 C76.83552526 218.11773556 80.95525444 221.37415229 88.515625 221.49609375 C100.40876795 219.28182337 110.10701194 207.33646996 116.71899414 197.86499023 C124.7561478 185.89324808 131.49109253 173.42798783 129.2109375 158.6484375 C125.42804353 140.92487871 113.93755746 126.46024944 99.375 116.1796875 C85.17657678 107.1129801 74.14885075 115.88359536 63.5546875 126.35546875 Z M25.640625 197.87109375 C24.99996094 198.47002441 24.35929688 199.06895508 23.69921875 199.68603516 C16.89461134 206.10686521 10.26292467 212.70095055 3.640625 219.30859375 C2.82827393 220.11706253 2.82827393 220.11706253 1.99951172 220.94186401 C-3.45049864 226.37135227 -8.81421364 231.82082743 -13.81640625 237.67236328 C-16.35490809 240.56995067 -19.10565119 243.24256781 -21.859375 245.93359375 C-25.87915111 249.90851643 -29.77109269 253.90879073 -33.4296875 258.22265625 C-35.5705121 260.67550387 -37.78789463 263.04441506 -40.01660156 265.41723633 C-45.32653469 271.07054916 -50.40743688 276.80862741 -55.2578125 282.8671875 C-57.33938927 285.40918738 -59.5097588 287.8288871 -61.734375 290.24609375 C-66.75282908 295.76812972 -71.32065168 301.59536032 -75.87060547 307.50341797 C-77.39247675 309.47650985 -78.92435779 311.44154137 -80.45703125 313.40625 C-101.7592037 340.83063615 -122.80135737 370.62444903 -132.359375 404.43359375 C-132.67777344 405.53445313 -132.99617188 406.6353125 -133.32421875 407.76953125 C-137.77657374 425.37377356 -136.60961971 443.43683461 -128.08984375 459.55078125 C-123.32114374 467.49502642 -117.03971974 474.07305275 -110.359375 480.43359375 C-108.04843655 478.3075976 -106.60017566 476.30257843 -105.18066406 473.50854492 C-104.7737735 472.71455795 -104.36688293 471.92057098 -103.94766235 471.1025238 C-103.51118378 470.23595657 -103.0747052 469.36938934 -102.625 468.4765625 C-102.15879242 467.56209854 -101.69258484 466.64763458 -101.21224976 465.70545959 C-99.67212323 462.68026425 -98.14066019 459.65077271 -96.609375 456.62109375 C-95.53730828 454.51055843 -94.4648749 452.40020933 -93.39208984 450.29003906 C-84.91458557 433.59338446 -76.52869484 416.8503077 -68.20019531 400.07885742 C-64.05758075 391.74727324 -59.87183414 383.44853827 -55.5078125 375.23046875 C-49.23467271 363.41098487 -43.31418811 351.41562938 -37.359375 339.43359375 C-24.86432369 314.29155362 -24.86432369 314.29155362 -19.390625 303.99609375 C-12.97602271 291.92902013 -6.94221126 279.67017361 -0.859375 267.43359375 C6.80838458 252.00869189 14.54084049 236.63653874 22.640625 221.43359375 C24.91616229 217.15492293 27.1659076 212.86394064 29.390625 208.55859375 C29.93460938 207.54152344 30.47859375 206.52445313 31.0390625 205.4765625 C31.54179687 204.49558594 32.04453125 203.51460937 32.5625 202.50390625 C33.23684082 201.21637451 33.23684082 201.21637451 33.92480469 199.90283203 C34.84200653 196.73892363 34.12448337 195.30063384 32.640625 192.43359375 C30.23256742 192.43359375 27.39607637 196.22837353 25.640625 197.87109375 Z M142.640625 192.43359375 C141.21716532 194.46359678 141.21716532 194.46359678 140.640625 197.43359375 C141.50556392 200.49022363 142.99100117 203.20211591 144.46875 206.00390625 C144.89178406 206.83961151 145.31481812 207.67531677 145.75067139 208.53634644 C147.11401195 211.21931118 148.50187841 213.88870672 149.890625 216.55859375 C150.78026229 218.30125907 151.66829939 220.04474228 152.5546875 221.7890625 C156.39439693 229.32067797 160.30587491 236.81326449 164.26641846 244.2819519 C171.73807487 258.38115227 178.79746507 272.68498893 185.89990234 286.97265625 C191.77715331 298.78938597 197.66920783 310.58659534 203.86486816 322.23999023 C210.25804845 334.31248971 216.2478934 346.59471574 222.32714844 358.82714844 C230.30713038 374.89233284 230.30713038 374.89233284 238.578125 390.80859375 C245.50104403 403.82997122 251.99220679 417.07281013 258.55712891 430.27697754 C267.80209518 448.89545895 267.80209518 448.89545895 277.328125 467.37109375 C277.72612305 468.127854 278.12412109 468.88461426 278.53417969 469.66430664 C280.4718431 473.31921367 282.46875236 476.91033369 284.640625 480.43359375 C298.19879451 469.41758103 307.92202477 456.04097657 310.640625 438.43359375 C312.46142915 416.01298977 306.2520906 396.44546608 296.640625 376.43359375 C296.10695313 375.32056885 296.10695313 375.32056885 295.5625 374.18505859 C284.04309058 350.57134386 268.09596538 328.83089741 251.640625 308.43359375 C251.12886719 307.79566895 250.61710937 307.15774414 250.08984375 306.50048828 C239.80151537 293.6807555 229.24260442 281.15198451 218.078125 269.0859375 C216.12318622 266.95868841 214.21180455 264.81087123 212.328125 262.62109375 C204.03798997 253.07849228 195.28896893 243.91494322 186.23828125 235.09375 C184.27491275 233.08314255 182.45359915 231.06980684 180.6328125 228.9375 C175.82538062 223.39466836 170.62962191 218.23655616 165.44360352 213.05126953 C163.70493411 211.31040515 161.97444536 209.56167365 160.24414062 207.8125 C154.66096802 202.20203388 149.18142645 196.94393782 142.640625 192.43359375 Z M57.015625 260.49609375 C48.00642334 272.01418701 34.640625 292.39663832 34.640625 307.43359375 C69.94501472 311.32274042 105.32775394 311.17944928 140.640625 307.43359375 C138.92245393 301.39773094 137.06386019 295.54643118 134.515625 289.80859375 C134.217771 289.13618652 133.91991699 288.4637793 133.61303711 287.77099609 C128.33007065 276.11138218 122.24803182 264.98592548 113.640625 255.43359375 C113.00511719 254.716875 112.36960937 254.00015625 111.71484375 253.26171875 C105.15336772 246.26631745 97.71809824 240.95751386 88.015625 240.12109375 C74.51464146 240.46982764 65.32232951 251.00271716 57.015625 260.49609375 Z M29.640625 325.43359375 C27.1345604 338.87807866 25.46269948 351.71690507 25.640625 365.43359375 C65.88586303 372.18740184 109.37284592 371.58393857 149.640625 365.43359375 C149.85548483 358.88036889 149.44236661 352.50732394 148.765625 345.99609375 C148.68715332 345.22225342 148.60868164 344.44841309 148.52783203 343.65112305 C147.86093405 337.52039771 146.80453953 331.48809149 145.640625 325.43359375 C145.08753662 325.48894287 144.53444824 325.54429199 143.96459961 325.60131836 C105.81097801 329.29782308 67.79491623 328.86223967 29.640625 325.43359375 Z M26.640625 384.43359375 C28.53243949 398.18077908 31.24176364 414.46483903 38.640625 426.43359375 C41.69790099 427.09197531 44.41738044 427.45346504 47.515625 427.66796875 C48.44109131 427.7430365 49.36655762 427.81810425 50.32006836 427.89544678 C61.53139833 428.71171837 72.7616226 428.73363129 83.99707031 428.69433594 C87.6362371 428.68360669 91.27491046 428.69430352 94.9140625 428.70703125 C108.94059827 428.71415711 122.71015612 428.08821384 136.640625 426.43359375 C144.87955786 406.51530326 144.87955786 406.51530326 147.640625 385.43359375 C144.51557684 385.57844312 141.39059026 385.72447423 138.265625 385.87109375 C136.98945313 385.93006836 136.98945313 385.93006836 135.6875 385.99023438 C131.32619574 386.19565813 126.9668251 386.40925679 122.609375 386.68530273 C111.19703983 387.39554028 99.82397617 387.63174741 88.390625 387.62109375 C87.48618652 387.62148651 86.58174805 387.62187927 85.64990234 387.62228394 C65.88118192 387.61208 46.30585949 386.49500307 26.640625 384.43359375 Z M49.640625 446.43359375 C54.05352729 455.27696981 54.05352729 455.27696981 59.390625 463.37109375 C60.0395874 464.26030518 60.0395874 464.26030518 60.70166016 465.16748047 C66.65017002 473.24867988 72.95961453 480.92506698 79.890625 488.18359375 C80.3861084 488.72193848 80.8815918 489.2602832 81.39208984 489.81494141 C83.57629432 492.03881862 84.94648138 493.38440247 88.12109375 493.609375 C91.61171264 491.98041952 94.06181951 489.60448659 96.703125 486.87109375 C97.26749268 486.29464111 97.83186035 485.71818848 98.41333008 485.12426758 C115.71671456 467.46626408 115.71671456 467.46626408 125.640625 446.43359375 C100.560625 446.43359375 75.480625 446.43359375 49.640625 446.43359375 Z " fill="#000000" transform="translate(168.359375,-0.43359375)"/>
</svg>
